<?xml version="1.0" standalone="no"?>
<!DOCTYPE svg PUBLIC "-//W3C//DTD SVG 20010904//EN"
 "http://www.w3.org/TR/2001/REC-SVG-20010904/DTD/svg10.dtd">
<svg version="1.0" xmlns="http://www.w3.org/2000/svg"
 width="400.000000pt" height="400.000000pt" viewBox="0 0 400.000000 400.000000"
 preserveAspectRatio="xMidYMid meet">
<metadata>
Created by potrace 1.14, written by Peter Selinger 2001-2017
</metadata>
<g transform="translate(0.000000,400.000000) scale(0.100000,-0.100000)"
fill="#000000" stroke="none">
<path d="M1018 2979 c-349 -53 -623 -424 -684 -924 -8 -67 -8 -258 -1 -320 36
-277 119 -494 254 -663 189 -236 460 -332 693 -245 50 19 145 68 167 86 141
119 200 192 274 337 40 78 80 178 94 237 40 163 47 217 48 373 2 150 -4 242
-19 310 -3 14 -7 34 -9 45 -3 11 -7 29 -9 40 -23 108 -94 273 -162 378 -117
181 -302 317 -465 342 -63 10 -132 11 -181 4z"/>
<path d="M2768 2985 c-2 -1 -26 -5 -54 -9 -112 -13 -231 -73 -332 -169 -160
-149 -266 -353 -324 -620 -32 -152 -32 -437 0 -592 56 -261 163 -468 318 -616
290 -274 672 -237 937 93 125 156 218 391 247 625 11 84 14 286 6 348 -2 17
-7 53 -11 80 -9 70 -52 227 -83 305 -104 261 -286 455 -495 525 -62 20 -198
40 -209 30z"/>
</g>
</svg>
